<?xml version="1.0" standalone="no"?>
<!DOCTYPE svg PUBLIC "-//W3C//DTD SVG 20010904//EN"
 "http://www.w3.org/TR/2001/REC-SVG-20010904/DTD/svg10.dtd">
<svg version="1.0" xmlns="http://www.w3.org/2000/svg"
 width="1080.000000pt" height="1080.000000pt" viewBox="0 0 1080.000000 1080.000000"
 preserveAspectRatio="xMidYMid meet">
<metadata>
Created by potrace 1.14, written by Peter Selinger 2001-2017
</metadata>
<g transform="translate(0.000000,1080.000000) scale(0.100000,-0.100000)"
fill="#000000" stroke="none">
<path d="M5040 10789 c-914 -61 -1813 -361 -2580 -860 -1252 -815 -2117 -2118
-2375 -3579 -242 -1366 42 -2757 801 -3910 666 -1014 1645 -1771 2789 -2156
1563 -528 3285 -311 4665 587 1252 815 2117 2118 2375 3579 242 1366 -42 2757
-801 3910 -768 1170 -1954 1994 -3314 2305 -490 112 -1059 157 -1560 124z
m929 -663 c33 -71 20 -461 -25 -726 -20 -117 -60 -252 -94 -320 -65 -129 -45
-231 60 -302 95 -65 183 -96 305 -108 310 -31 448 -118 743 -472 150 -180 208
-233 437 -404 401 -299 517 -402 561 -496 27 -59 29 -71 28 -183 -1 -93 -7
-146 -28 -235 -41 -173 -48 -225 -46 -340 1 -58 3 -146 3 -195 2 -84 0 -95
-32 -159 -57 -116 -225 -256 -307 -256 -47 0 -112 79 -66 80 9 0 26 7 36 15
18 14 18 16 -9 92 -29 84 -75 173 -101 194 -14 11 -20 9 -40 -14 -24 -28 -24
-28 -26 -5 -3 46 3 61 42 106 l39 47 -43 45 c-25 25 -57 68 -73 95 -29 49 -31
50 -86 56 -64 7 -104 29 -117 65 -16 40 -12 54 23 88 34 35 84 48 223 61 l71
7 -13 66 c-7 37 -13 81 -14 99 0 28 -9 37 -107 104 -359 243 -520 369 -726
568 -80 77 -151 141 -157 141 -14 0 -15 -4 -35 -154 -15 -113 -15 -147 -4
-287 16 -197 2 -302 -56 -414 -33 -63 -40 -91 -71 -295 -43 -278 -51 -383 -34
-436 7 -21 38 -100 70 -174 71 -167 96 -245 165 -519 35 -139 79 -282 125
-402 77 -205 129 -394 157 -569 15 -100 18 -187 18 -650 1 -381 5 -549 13
-583 14 -55 47 -122 99 -204 52 -81 108 -206 132 -293 38 -140 51 -254 66
-584 8 -182 21 -365 29 -407 17 -91 97 -327 133 -389 14 -25 73 -118 130 -207
115 -179 183 -315 191 -378 4 -36 1 -45 -23 -63 -35 -28 -56 -29 -27 -2 79 74
-65 100 -252 45 -57 -16 -111 -39 -128 -53 -30 -25 -31 -31 -12 -91 6 -21 5
-22 -13 -12 -32 17 -79 100 -102 179 -12 39 -30 105 -42 145 -11 39 -42 119
-69 177 -26 58 -51 121 -55 140 -4 19 -18 73 -31 120 -13 47 -33 132 -44 189
-36 177 -134 424 -288 723 -66 128 -132 305 -162 435 -7 29 -40 99 -76 160
-35 59 -76 139 -91 178 -14 38 -59 153 -98 255 -39 102 -94 244 -120 315 -27
72 -113 257 -191 412 -195 385 -230 496 -192 595 14 38 24 28 39 -37 14 -63
27 -78 65 -73 47 5 69 48 72 141 4 99 -14 140 -74 171 -36 19 -57 21 -244 21
-185 0 -209 -2 -244 -20 -60 -30 -78 -72 -74 -172 3 -93 25 -136 72 -141 38
-5 51 10 65 73 15 65 25 75 39 37 39 -99 9 -190 -194 -597 -110 -221 -176
-368 -229 -510 -188 -508 -205 -548 -280 -663 -30 -47 -52 -99 -70 -163 -51
-183 -86 -277 -162 -425 -160 -314 -242 -525 -292 -749 -53 -238 -77 -321
-125 -422 -25 -54 -57 -141 -71 -193 -52 -187 -98 -287 -140 -303 -18 -8 -20
15 -3 43 15 23 5 44 -33 72 -37 27 -197 69 -269 71 -115 3 -146 -19 -98 -70
27 -29 10 -30 -27 -1 -24 18 -27 27 -23 63 8 63 76 199 191 378 57 89 116 182
130 207 36 62 116 298 133 389 8 42 21 223 29 403 15 333 28 454 65 588 25 87
81 212 133 293 115 179 118 201 110 713 -10 679 17 871 182 1304 41 109 85
253 124 407 64 255 98 362 166 513 71 161 79 192 72 289 -4 47 -22 187 -41
311 -31 204 -38 232 -71 295 -58 112 -72 217 -56 414 11 140 11 174 -4 287
-20 150 -21 154 -36 154 -6 0 -73 -60 -148 -133 -205 -200 -377 -335 -733
-576 -99 -67 -108 -76 -108 -104 -1 -18 -7 -62 -14 -99 l-13 -66 71 -7 c169
-15 235 -42 250 -99 15 -61 -32 -105 -121 -115 -56 -6 -57 -7 -89 -61 -18 -30
-51 -73 -73 -94 l-40 -40 33 -40 c46 -57 55 -77 49 -110 l-6 -28 -22 28 c-28
35 -41 27 -84 -50 -26 -46 -81 -185 -81 -205 0 -5 16 -16 35 -25 30 -14 34
-20 25 -36 -5 -10 -21 -27 -35 -38 -31 -25 -62 -18 -143 30 -83 49 -164 135
-203 214 -32 64 -34 75 -32 159 0 49 2 137 3 195 2 115 -5 167 -46 340 -21 89
-27 142 -28 235 -1 112 1 124 28 182 42 92 190 224 516 463 230 168 327 256
474 430 307 364 439 449 743 479 143 15 244 53 344 132 76 60 86 165 28 281
-59 116 -96 288 -124 568 -24 244 -17 456 16 496 10 12 100 14 563 12 l551 -3
14 -29z"/>
<path d="M4945 9770 c-27 -4 -30 -10 -33 -45 -7 -72 19 -285 44 -371 45 -157
132 -300 218 -358 76 -52 128 -68 226 -68 98 0 150 16 228 69 87 59 176 210
222 374 27 97 50 373 32 391 -10 10 -120 13 -460 13 -246 1 -460 -2 -477 -5z"/>
<path d="M3552 6778 c-29 -29 0 -88 45 -88 11 0 30 11 42 24 31 33 21 66 -19
66 -16 0 -34 2 -42 5 -7 3 -19 0 -26 -7z"/>
<path d="M7188 6783 c-48 -5 -60 -34 -27 -69 27 -29 60 -31 84 -4 15 16 17 26
9 47 -10 30 -14 31 -66 26z"/>
</g>
</svg>
