<?xml version="1.0" standalone="no"?>
<!DOCTYPE svg PUBLIC "-//W3C//DTD SVG 20010904//EN"
 "http://www.w3.org/TR/2001/REC-SVG-20010904/DTD/svg10.dtd">
<svg version="1.0" xmlns="http://www.w3.org/2000/svg"
 width="660.000000pt" height="1080.000000pt" viewBox="0 0 660.000000 1080.000000"
 preserveAspectRatio="xMidYMid meet">

<g transform="translate(0.000000,1080.000000) scale(0.100000,-0.100000)"
fill="#FFFFFF" stroke="none">
<path d="M1697 7987 c-119 -142 -212 -223 -477 -417 -216 -157 -409 -320 -447
-377 -77 -115 -81 -243 -18 -528 13 -60 27 -126 30 -145 6 -38 59 -110 71 -97
4 4 2 30 -5 57 -16 62 -10 89 30 134 59 68 92 81 202 81 83 0 100 -3 108 -18
6 -9 20 -17 33 -17 22 0 25 7 40 89 9 49 16 102 16 119 0 28 13 39 168 143
183 124 378 269 487 361 78 67 265 248 265 257 0 3 -19 15 -43 26 -48 23 -172
142 -234 225 -35 47 -93 136 -128 195 -9 14 -23 1 -98 -88z"/>
</g>
</svg>
