<?xml version="1.0" standalone="no"?>
<!DOCTYPE svg PUBLIC "-//W3C//DTD SVG 20010904//EN"
 "http://www.w3.org/TR/2001/REC-SVG-20010904/DTD/svg10.dtd">
<svg version="1.0" xmlns="http://www.w3.org/2000/svg"
 width="660.000000pt" height="1080.000000pt" viewBox="0 0 660.000000 1080.000000"
 preserveAspectRatio="xMidYMid meet">

<g transform="translate(0.000000,1080.000000) scale(0.100000,-0.100000)"
fill="#FFFFFF" stroke="none">
<path d="M1935 4232 c-4 -50 -6 -294 -4 -544 4 -529 9 -499 -109 -696 -143
-240 -175 -374 -192 -797 -6 -143 -18 -323 -27 -400 -22 -186 -21 -214 14
-243 40 -34 106 -62 161 -69 39 -4 59 0 106 22 32 15 59 32 61 39 52 189 139
403 258 634 92 180 134 287 173 436 21 82 40 129 77 190 83 137 79 127 246
571 109 289 141 363 232 543 54 106 92 189 86 184 -21 -16 -111 -39 -221 -57
-130 -20 -429 -3 -501 30 -27 13 -72 30 -100 40 -99 33 -188 100 -235 178
l-18 29 -7 -90z"/>
</g>
</svg>
