<?xml version="1.0" standalone="no"?>
<!DOCTYPE svg PUBLIC "-//W3C//DTD SVG 20010904//EN"
 "http://www.w3.org/TR/2001/REC-SVG-20010904/DTD/svg10.dtd">
<svg version="1.0" xmlns="http://www.w3.org/2000/svg"
 width="660.000000pt" height="1080.000000pt" viewBox="0 0 660.000000 1080.000000"
 preserveAspectRatio="xMidYMid meet">

<g transform="translate(0.000000,1080.000000) scale(0.100000,-0.100000)"
fill="#FFFFFF" stroke="none">
<path d="M1936 4279 c-12 -104 -15 -443 -6 -672 15 -355 3 -428 -98 -592 -99
-160 -145 -280 -176 -455 -22 -123 -26 -175 -36 -470 -5 -146 -16 -308 -24
-360 -18 -128 -14 -153 38 -190 44 -33 121 -60 170 -60 17 0 55 13 84 28 l53
27 35 103 c19 57 52 151 75 208 l41 104 1208 0 1208 0 41 -104 c23 -57 56
-151 75 -208 l35 -103 53 -27 c29 -15 67 -28 84 -28 49 0 126 27 170 60 52 38
59 72 38 195 -8 50 -19 209 -24 355 -10 294 -14 346 -36 470 -31 175 -77 295
-176 455 -101 164 -113 237 -98 592 9 229 6 568 -6 672 l-6 44 -17 -29 c-48
-79 -137 -146 -236 -179 -27 -10 -72 -27 -100 -40 -72 -33 -371 -50 -501 -30
-115 19 -200 41 -223 59 -17 13 -25 31 95 -209 55 -110 122 -258 148 -330 27
-71 77 -202 111 -290 34 -88 79 -203 99 -255 20 -53 63 -139 95 -191 51 -80
66 -115 95 -225 44 -160 61 -204 136 -354 33 -66 60 -122 60 -125 0 -3 -504
-5 -1120 -5 -616 0 -1120 2 -1120 5 0 3 27 59 60 125 75 150 92 194 136 354
29 110 44 145 95 225 32 52 75 138 95 191 20 52 65 167 99 255 34 88 84 219
111 290 26 72 93 220 148 330 120 240 112 222 95 209 -23 -18 -108 -40 -223
-59 -130 -20 -429 -3 -501 30 -27 13 -72 30 -100 40 -99 33 -188 100 -236 179
l-17 29 -6 -44z"/>
</g>
</svg>
