<?xml version="1.0" standalone="no"?>
<!DOCTYPE svg PUBLIC "-//W3C//DTD SVG 20010904//EN"
 "http://www.w3.org/TR/2001/REC-SVG-20010904/DTD/svg10.dtd">
<svg version="1.0" xmlns="http://www.w3.org/2000/svg"
 width="660.000000pt" height="1080.000000pt" viewBox="0 0 660.000000 1080.000000"
 preserveAspectRatio="xMidYMid meet">

<g transform="translate(0.000000,1080.000000) scale(0.100000,-0.100000)"
fill="#FFFFFF" stroke="none">
<path d="M1706 2758 c-56 -198 -74 -333 -86 -649 -12 -338 -26 -436 -90 -617
-50 -143 -85 -208 -234 -434 -85 -129 -156 -280 -156 -333 0 -24 7 -39 26 -54
36 -28 53 -27 26 2 -12 13 -22 31 -22 40 0 40 142 41 275 2 128 -37 171 -72
146 -118 -21 -39 -10 -52 21 -27 39 30 81 126 117 264 17 65 51 162 77 215 48
101 75 192 123 406 29 129 83 298 137 428 l28 67 1206 0 1207 0 41 -102 c58
-150 98 -278 127 -408 42 -194 72 -291 119 -391 26 -53 60 -150 77 -215 36
-138 78 -234 117 -264 31 -25 42 -12 21 27 -25 46 18 81 146 118 133 39 275
38 275 -2 0 -9 -10 -27 -22 -40 -27 -29 -10 -30 26 -2 19 15 26 30 26 54 0 53
-71 204 -156 333 -149 226 -184 291 -234 434 -63 177 -79 286 -90 593 -12 325
-32 497 -77 643 -18 58 -25 63 -40 30 -6 -13 -30 -47 -54 -76 -66 -80 -150
-117 -304 -133 -119 -12 -174 -6 -257 26 -15 6 -14 -1 6 -67 29 -93 85 -225
130 -308 20 -36 36 -68 36 -72 0 -5 -504 -8 -1120 -8 -616 0 -1120 3 -1120 7
0 3 20 43 43 87 50 92 90 188 123 294 20 66 21 73 6 67 -83 -32 -138 -38 -257
-26 -154 16 -238 53 -304 133 -24 29 -48 63 -54 76 -6 12 -13 22 -17 22 -4 0
-11 -10 -14 -22z"/>
</g>
</svg>
