<?xml version="1.0" standalone="no"?>
<!DOCTYPE svg PUBLIC "-//W3C//DTD SVG 20010904//EN"
 "http://www.w3.org/TR/2001/REC-SVG-20010904/DTD/svg10.dtd">
<svg version="1.0" xmlns="http://www.w3.org/2000/svg"
 width="660.000000pt" height="1080.000000pt" viewBox="0 0 660.000000 1080.000000"
 preserveAspectRatio="xMidYMid meet">

<g transform="translate(0.000000,1080.000000) scale(0.100000,-0.100000)"
fill="#FFFFFF" stroke="none">
<path d="M2617 8534 c-21 -7 -87 -18 -145 -24 -138 -14 -207 -32 -302 -80
-142 -71 -230 -153 -467 -435 -131 -156 -213 -227 -483 -425 -216 -157 -409
-320 -447 -377 -77 -114 -82 -251 -18 -523 33 -142 46 -293 33 -378 -23 -151
8 -268 99 -371 36 -41 41 -44 76 -37 20 4 37 10 37 13 0 3 -18 21 -40 40 -32
28 -40 41 -40 68 0 93 49 216 113 283 44 46 71 42 139 -18 l56 -50 13 33 c7
17 34 55 59 83 57 61 82 106 78 141 l-3 26 -31 -26 c-90 -76 -207 24 -160 137
l15 36 83 0 83 0 -25 20 c-14 11 -38 23 -54 27 -27 6 -28 8 -22 47 4 23 9 67
13 99 l6 57 166 112 c310 210 474 341 683 544 70 68 131 124 137 124 13 0 14
-7 35 -170 13 -98 14 -145 6 -215 -24 -217 -3 -386 59 -486 25 -40 32 -73 60
-255 17 -115 34 -236 37 -269 11 -99 12 -100 116 -133 222 -71 440 -102 718
-102 278 0 496 31 718 102 104 33 105 34 116 133 3 33 20 154 37 269 28 182
35 215 60 255 62 100 83 269 59 486 -8 70 -7 117 6 215 21 163 22 170 35 170
6 0 67 -56 137 -124 209 -203 373 -334 683 -544 l166 -112 6 -57 c4 -32 9 -76
13 -99 6 -39 5 -41 -22 -47 -16 -4 -40 -16 -54 -27 l-25 -20 83 0 83 0 15 -36
c47 -113 -70 -213 -160 -137 l-31 26 -3 -26 c-4 -35 21 -80 78 -141 25 -28 52
-66 59 -83 l13 -33 56 50 c68 60 95 64 139 18 64 -67 113 -190 113 -283 0 -27
-8 -40 -40 -68 -22 -19 -40 -37 -40 -40 0 -3 17 -9 37 -13 35 -7 40 -4 76 37
91 103 122 220 99 371 -13 85 0 236 33 378 64 272 59 409 -18 523 -38 57 -231
220 -447 377 -270 198 -352 269 -483 425 -237 282 -325 364 -467 435 -95 48
-164 66 -302 80 -59 6 -125 17 -147 25 -25 8 -43 10 -46 4 -23 -36 -338 -276
-517 -393 l-118 -77 -117 77 c-174 113 -386 272 -493 370 -34 31 -36 31 -73
18z"/>
</g>
</svg>
