<?xml version="1.0" standalone="no"?>
<!DOCTYPE svg PUBLIC "-//W3C//DTD SVG 20010904//EN"
 "http://www.w3.org/TR/2001/REC-SVG-20010904/DTD/svg10.dtd">
<svg version="1.0" xmlns="http://www.w3.org/2000/svg"
 width="660.000000pt" height="1080.000000pt" viewBox="0 0 660.000000 1080.000000"
 preserveAspectRatio="xMidYMid meet">

<g transform="translate(0.000000,1080.000000) scale(0.100000,-0.100000)"
fill="#FFFFFF" stroke="none">
<path d="M2478 6157 c-3 -48 -19 -96 -70 -217 -83 -194 -103 -254 -173 -532
-31 -123 -83 -292 -115 -378 -98 -262 -132 -382 -167 -595 -16 -96 -18 -179
-19 -655 -1 -634 5 -592 -112 -788 -143 -240 -175 -374 -192 -797 -17 -405
-30 -504 -94 -688 -56 -159 -87 -217 -240 -449 -85 -129 -156 -280 -156 -333
0 -24 7 -39 26 -54 36 -28 53 -27 26 2 -12 13 -22 31 -22 40 0 40 142 41 275
2 128 -37 171 -72 146 -118 -21 -39 -10 -52 21 -27 39 30 81 126 117 264 17
65 51 162 77 215 49 105 79 203 123 412 49 227 125 427 274 717 92 180 134
287 173 436 21 82 40 129 77 190 83 137 79 127 246 571 112 294 144 368 275
629 143 283 201 427 201 501 0 44 -23 108 -35 100 -5 -3 -14 -30 -21 -60 -14
-63 -27 -78 -65 -73 -47 5 -69 48 -72 141 -4 100 14 142 74 172 35 18 59 20
244 20 187 0 208 -2 244 -21 60 -31 78 -72 74 -171 -3 -93 -25 -136 -72 -141
-38 -5 -51 10 -65 73 -7 30 -16 57 -21 60 -14 9 -35 -59 -34 -110 2 -73 61
-220 179 -450 127 -246 183 -371 247 -545 27 -74 58 -143 69 -152 27 -23 112
-46 193 -52 71 -6 248 15 301 36 106 40 151 67 211 124 45 44 47 75 41 512 -7
514 -27 630 -183 1050 -37 99 -86 259 -115 373 -61 246 -107 392 -166 524 -64
143 -83 201 -83 257 l0 49 -27 -15 c-49 -24 -215 -73 -323 -95 -167 -33 -261
-41 -470 -41 -209 0 -303 8 -470 41 -107 21 -274 70 -321 95 l-27 13 -4 -62z"/>
</g>
</svg>
