<?xml version="1.0" standalone="no"?>
<!DOCTYPE svg PUBLIC "-//W3C//DTD SVG 20010904//EN"
 "http://www.w3.org/TR/2001/REC-SVG-20010904/DTD/svg10.dtd">
<svg version="1.0" xmlns="http://www.w3.org/2000/svg"
 width="660.000000pt" height="1080.000000pt" viewBox="0 0 660.000000 1080.000000"
 preserveAspectRatio="xMidYMid meet">

<g transform="translate(0.000000,1080.000000) scale(0.100000,-0.100000)"
fill="#FFFFFF" stroke="none">
<path d="M1697 7987 c-119 -142 -212 -223 -477 -417 -216 -157 -409 -320 -447
-377 -77 -114 -82 -251 -18 -523 33 -142 46 -293 33 -378 -23 -151 8 -268 99
-371 36 -41 41 -44 76 -37 20 4 37 10 37 13 0 3 -18 21 -40 40 -32 28 -40 41
-40 68 0 93 49 216 113 283 44 46 71 42 139 -18 l56 -50 13 33 c7 17 34 55 59
83 57 61 82 106 78 141 l-3 26 -31 -26 c-90 -76 -207 24 -160 137 l15 36 83 0
83 0 -25 20 c-14 11 -38 23 -54 27 -27 6 -28 8 -22 47 4 23 9 67 13 99 l6 57
166 112 c182 124 377 268 486 360 78 67 265 248 265 257 0 3 -19 15 -43 26
-48 23 -172 142 -234 225 -35 47 -93 136 -128 195 -9 14 -23 1 -98 -88z"/>
</g>
</svg>
