<?xml version="1.0" standalone="no"?>
<!DOCTYPE svg PUBLIC "-//W3C//DTD SVG 20010904//EN"
 "http://www.w3.org/TR/2001/REC-SVG-20010904/DTD/svg10.dtd">
<svg version="1.0" xmlns="http://www.w3.org/2000/svg"
 width="660.000000pt" height="1080.000000pt" viewBox="0 0 660.000000 1080.000000"
 preserveAspectRatio="xMidYMid meet">

<g transform="translate(0.000000,1080.000000) scale(0.100000,-0.100000)"
fill="#FFFFFF" stroke="none">
<path d="M1697 7987 c-119 -142 -212 -223 -477 -417 -216 -157 -409 -320 -447
-377 -68 -101 -80 -276 -33 -473 42 -173 52 -268 44 -385 -15 -223 -7 -266 77
-385 42 -61 135 -132 223 -171 53 -23 83 -14 110 31 l16 29 -35 17 c-19 9 -35
20 -35 25 0 20 55 159 81 205 44 78 56 85 85 49 15 -19 24 -24 24 -15 0 8 3
24 6 36 4 14 -7 35 -35 69 -23 27 -41 54 -41 60 0 6 16 27 36 46 53 51 84 103
84 145 l0 36 -37 -32 c-31 -28 -42 -31 -75 -27 -22 3 -48 13 -59 23 -30 27
-42 85 -27 130 l13 39 85 5 85 5 -35 22 c-19 13 -43 23 -54 23 -16 0 -18 5
-11 43 4 23 10 68 14 99 4 32 9 60 12 62 2 2 85 59 184 126 188 128 342 243
460 343 77 65 265 247 265 256 0 3 -19 15 -43 26 -48 23 -172 142 -234 225
-35 47 -93 136 -128 195 -9 14 -23 1 -98 -88z"/>
</g>
</svg>
