<?xml version="1.0" standalone="no"?>
<!DOCTYPE svg PUBLIC "-//W3C//DTD SVG 20010904//EN"
 "http://www.w3.org/TR/2001/REC-SVG-20010904/DTD/svg10.dtd">
<svg version="1.0" xmlns="http://www.w3.org/2000/svg"
 width="660.000000pt" height="1080.000000pt" viewBox="0 0 660.000000 1080.000000"
 preserveAspectRatio="xMidYMid meet">

<g transform="translate(0.000000,1080.000000) scale(0.100000,-0.100000)"
fill="#FFFFFF" stroke="none">
<path d="M1697 7987 c-119 -142 -212 -223 -477 -417 -216 -157 -409 -320 -447
-377 -68 -101 -80 -276 -33 -473 42 -173 52 -268 44 -385 -12 -180 -8 -228 26
-299 40 -85 104 -156 138 -155 15 0 35 4 45 8 16 6 13 12 -27 45 -39 32 -46
43 -46 73 0 125 102 313 170 313 17 0 45 -17 82 -50 l56 -50 13 33 c7 17 35
55 61 83 27 28 59 71 71 95 23 42 26 44 78 50 62 7 91 20 113 51 23 33 19 64
-12 99 -31 34 -92 53 -218 64 l-76 8 6 31 c4 17 10 59 13 93 3 34 8 66 12 71
3 5 87 65 186 132 188 128 342 243 460 343 77 65 265 247 265 256 0 3 -19 15
-43 26 -48 23 -172 142 -234 225 -35 47 -93 136 -128 195 -9 14 -23 1 -98 -88z
m-177 -1367 c40 0 50 -33 19 -66 -26 -28 -55 -31 -81 -7 -31 28 -15 92 20 78
8 -3 26 -5 42 -5z"/>
</g>
</svg>
