<?xml version="1.0" standalone="no"?>
<!DOCTYPE svg PUBLIC "-//W3C//DTD SVG 20010904//EN"
 "http://www.w3.org/TR/2001/REC-SVG-20010904/DTD/svg10.dtd">
<svg version="1.0" xmlns="http://www.w3.org/2000/svg"
 width="660.000000pt" height="1080.000000pt" viewBox="0 0 660.000000 1080.000000"
 preserveAspectRatio="xMidYMid meet">

<g transform="translate(0.000000,1080.000000) scale(0.100000,-0.100000)"
fill="#FFFFFF" stroke="none">
<path d="M1935 4232 c-4 -50 -6 -294 -4 -544 4 -529 9 -499 -109 -696 -143
-240 -175 -374 -192 -797 -17 -405 -30 -504 -94 -688 -56 -159 -87 -217 -240
-449 -85 -129 -156 -280 -156 -333 0 -24 7 -39 26 -54 36 -28 53 -27 26 2 -12
13 -22 31 -22 40 0 40 142 41 275 2 128 -37 171 -72 146 -118 -21 -39 -10 -52
21 -27 39 30 81 126 117 264 17 65 51 162 77 215 49 105 79 203 123 412 49
227 125 427 274 717 92 180 134 287 173 436 21 82 40 129 77 190 83 137 79
127 246 571 109 289 141 363 232 543 54 106 92 189 86 184 -21 -16 -111 -39
-221 -57 -130 -20 -429 -3 -501 30 -27 13 -72 30 -100 40 -99 33 -188 100
-235 178 l-18 29 -7 -90z"/>
</g>
</svg>
