<?xml version="1.0" standalone="no"?>
<!DOCTYPE svg PUBLIC "-//W3C//DTD SVG 20010904//EN"
 "http://www.w3.org/TR/2001/REC-SVG-20010904/DTD/svg10.dtd">
<svg version="1.0" xmlns="http://www.w3.org/2000/svg"
 width="660.000000pt" height="1080.000000pt" viewBox="0 0 660.000000 1080.000000"
 preserveAspectRatio="xMidYMid meet">

<g transform="translate(0.000000,1080.000000) scale(0.100000,-0.100000)"
fill="#FFFFFF" stroke="none">
<path d="M2864 8882 c20 -39 21 -143 2 -181 -24 -45 -84 -91 -171 -132 -86
-40 -145 -54 -267 -64 -43 -4 -78 -8 -78 -10 0 -1 11 -28 25 -60 102 -229 79
-515 -56 -711 -31 -46 -32 -48 -26 -135 4 -48 11 -108 17 -133 7 -30 7 -76 0
-138 -14 -137 -12 -303 5 -377 9 -36 31 -94 50 -130 32 -61 37 -86 70 -311 19
-135 38 -264 41 -288 3 -23 9 -40 13 -37 5 2 41 -6 81 -20 203 -69 453 -105
730 -105 277 0 527 36 730 105 40 14 76 22 81 20 4 -3 10 14 13 37 3 24 22
153 41 288 33 225 38 250 70 311 19 36 41 94 50 130 17 74 19 240 5 377 -7 62
-7 108 0 138 6 25 13 85 17 133 6 87 5 89 -26 135 -135 196 -158 482 -56 711
14 32 25 59 25 60 0 2 -35 6 -77 10 -123 10 -182 24 -268 64 -87 41 -147 87
-171 132 -19 38 -18 142 2 181 l16 31 -33 -22 c-60 -39 -192 -100 -254 -116
-35 -9 -103 -15 -165 -15 -62 0 -130 6 -165 15 -62 16 -194 77 -254 116 l-33
22 16 -31z"/>
</g>
</svg>
