<?xml version="1.0" standalone="no"?>
<!DOCTYPE svg PUBLIC "-//W3C//DTD SVG 20010904//EN"
 "http://www.w3.org/TR/2001/REC-SVG-20010904/DTD/svg10.dtd">
<svg version="1.0" xmlns="http://www.w3.org/2000/svg"
 width="660.000000pt" height="1080.000000pt" viewBox="0 0 660.000000 1080.000000"
 preserveAspectRatio="xMidYMid meet">

<g transform="translate(0.000000,1080.000000) scale(0.100000,-0.100000)"
fill="#FFFFFF" stroke="none">
<path d="M909 7146 c-62 -22 -121 -71 -169 -140 l-34 -50 12 -91 c6 -50 23
-138 36 -196 34 -140 47 -291 34 -377 -23 -151 8 -268 99 -371 36 -41 41 -44
76 -37 20 4 37 10 37 13 0 3 -18 21 -40 40 -32 28 -40 41 -40 68 0 93 49 216
113 283 44 46 71 42 139 -18 l56 -50 13 33 c7 17 34 55 59 83 57 61 82 106 78
141 l-3 26 -31 -26 c-90 -76 -207 24 -160 137 l15 36 83 0 83 0 -25 20 c-14
11 -38 23 -54 27 -27 6 -28 7 -21 52 24 161 24 157 -13 232 -38 76 -87 130
-144 160 -44 22 -143 25 -199 5z"/>
</g>
</svg>
