<?xml version="1.0" standalone="no"?>
<!DOCTYPE svg PUBLIC "-//W3C//DTD SVG 20010904//EN"
 "http://www.w3.org/TR/2001/REC-SVG-20010904/DTD/svg10.dtd">
<svg version="1.0" xmlns="http://www.w3.org/2000/svg"
 width="660.000000pt" height="1080.000000pt" viewBox="0 0 660.000000 1080.000000"
 preserveAspectRatio="xMidYMid meet">

<g transform="translate(0.000000,1080.000000) scale(0.100000,-0.100000)"
fill="#FFFFFF" stroke="none">
<path d="M909 7146 c-88 -31 -199 -149 -199 -212 0 -43 30 -222 51 -304 24
-91 34 -269 22 -368 -19 -150 17 -255 126 -362 85 -84 204 -147 242 -130 14 7
33 25 43 40 l16 29 -35 17 c-19 9 -35 20 -35 25 0 20 55 159 81 205 44 78 56
85 85 49 15 -19 24 -24 24 -15 0 8 3 24 6 36 4 14 -7 35 -35 69 -23 27 -41 54
-41 60 0 6 16 27 36 46 49 47 86 112 82 145 l-3 27 -31 -26 c-90 -76 -207 24
-160 137 l15 36 83 0 83 0 -25 20 c-14 11 -38 23 -54 27 -27 6 -28 7 -21 52
24 161 24 157 -13 232 -38 76 -87 130 -144 160 -44 22 -143 25 -199 5z"/>
</g>
</svg>
