<?xml version="1.0" standalone="no"?>
<!DOCTYPE svg PUBLIC "-//W3C//DTD SVG 20010904//EN"
 "http://www.w3.org/TR/2001/REC-SVG-20010904/DTD/svg10.dtd">
<svg version="1.0" xmlns="http://www.w3.org/2000/svg"
 width="660.000000pt" height="1080.000000pt" viewBox="0 0 660.000000 1080.000000"
 preserveAspectRatio="xMidYMid meet">

<g transform="translate(0.000000,1080.000000) scale(0.100000,-0.100000)"
fill="#FFFFFF" stroke="none">
<path d="M909 7146 c-89 -31 -199 -150 -199 -213 0 -44 28 -210 52 -303 21
-86 27 -211 19 -433 -3 -83 -1 -92 32 -160 19 -40 52 -92 74 -116 36 -41 41
-44 76 -37 20 4 37 10 37 13 0 3 -18 21 -40 40 -32 28 -40 41 -40 68 0 93 49
216 113 283 44 46 71 42 139 -18 l56 -50 12 33 c7 17 34 53 59 80 25 26 57 68
71 95 26 45 28 47 81 53 62 7 91 20 113 51 23 33 19 64 -12 99 -31 34 -92 53
-218 64 l-76 8 7 46 c24 154 24 157 -13 232 -38 76 -87 130 -144 160 -44 22
-143 25 -199 5z m611 -526 c40 0 50 -33 19 -66 -26 -28 -55 -31 -81 -7 -31 28
-15 92 20 78 8 -3 26 -5 42 -5z"/>
</g>
</svg>
