<?xml version="1.0" standalone="no"?>
<!DOCTYPE svg PUBLIC "-//W3C//DTD SVG 20010904//EN"
 "http://www.w3.org/TR/2001/REC-SVG-20010904/DTD/svg10.dtd">
<svg version="1.0" xmlns="http://www.w3.org/2000/svg"
 width="660.000000pt" height="1080.000000pt" viewBox="0 0 660.000000 1080.000000"
 preserveAspectRatio="xMidYMid meet">

<g transform="translate(0.000000,1080.000000) scale(0.100000,-0.100000)"
fill="#FFFFFF" stroke="none">
<path d="M2480 6182 c0 -52 -23 -127 -76 -243 -66 -149 -109 -280 -170 -527
-35 -142 -78 -283 -114 -378 -160 -415 -192 -609 -192 -1136 0 -370 3 -400 46
-442 51 -49 69 -61 127 -88 90 -41 110 -47 215 -63 111 -16 211 -13 288 10 79
24 90 35 126 137 56 158 126 314 244 543 176 343 223 479 195 564 -8 24 -18
44 -24 44 -5 1 -17 -24 -25 -55 -18 -68 -29 -81 -65 -76 -48 5 -70 47 -73 141
-4 99 14 140 74 171 36 19 57 21 244 21 187 0 208 -2 244 -21 60 -31 78 -72
74 -171 -3 -94 -25 -136 -73 -141 -36 -5 -47 8 -65 76 -8 31 -19 56 -25 55 -5
0 -16 -20 -24 -44 -28 -85 20 -225 188 -549 132 -256 171 -340 233 -510 27
-74 58 -143 69 -152 27 -23 112 -46 193 -52 71 -6 248 15 301 36 59 22 139 61
158 77 62 51 79 72 88 107 12 53 11 687 -1 815 -22 226 -73 424 -178 699 -38
99 -80 238 -116 382 -61 247 -104 378 -170 527 -53 116 -76 191 -76 243 l0 39
-27 -15 c-49 -24 -215 -73 -323 -95 -167 -33 -261 -41 -470 -41 -209 0 -303 8
-470 41 -108 22 -274 71 -322 95 l-28 15 0 -39z"/>
</g>
</svg>
