<?xml version="1.0" standalone="no"?>
<!DOCTYPE svg PUBLIC "-//W3C//DTD SVG 20010904//EN"
 "http://www.w3.org/TR/2001/REC-SVG-20010904/DTD/svg10.dtd">
<svg version="1.0" xmlns="http://www.w3.org/2000/svg"
 width="660.000000pt" height="1080.000000pt" viewBox="0 0 660.000000 1080.000000"
 preserveAspectRatio="xMidYMid meet">

<g transform="translate(0.000000,1080.000000) scale(0.100000,-0.100000)"
fill="#FFFFFF" stroke="none">
<path d="M2474 6163 c0 -48 -12 -84 -67 -213 -83 -196 -105 -263 -173 -535
-33 -131 -80 -284 -116 -380 -158 -417 -190 -610 -190 -1137 0 -370 3 -400 46
-442 51 -49 69 -61 127 -88 90 -41 110 -47 215 -63 111 -16 211 -13 288 10 79
24 90 35 126 137 56 157 123 307 257 570 128 252 193 414 193 483 0 43 -26
109 -39 101 -5 -4 -15 -31 -22 -61 -14 -63 -27 -78 -65 -73 -47 5 -69 48 -72
141 -4 99 14 140 74 171 42 22 100 24 574 14 223 -4 358 16 570 83 113 37 144
58 206 145 l47 65 -31 102 c-17 56 -49 179 -71 273 -51 213 -77 294 -151 464
-65 150 -84 215 -78 260 4 25 2 30 -11 24 -65 -29 -214 -76 -297 -94 -172 -37
-299 -50 -514 -50 -215 0 -342 13 -514 50 -82 18 -232 65 -296 93 -12 6 -15
-3 -16 -50z"/>
</g>
</svg>
