<?xml version="1.0" standalone="no"?>
<!DOCTYPE svg PUBLIC "-//W3C//DTD SVG 20010904//EN"
 "http://www.w3.org/TR/2001/REC-SVG-20010904/DTD/svg10.dtd">
<svg version="1.0" xmlns="http://www.w3.org/2000/svg"
 width="660.000000pt" height="1080.000000pt" viewBox="0 0 660.000000 1080.000000"
 preserveAspectRatio="xMidYMid meet">

<g transform="translate(0.000000,1080.000000) scale(0.100000,-0.100000)"
fill="#FFFFFF" stroke="none">
<path d="M1697 2728 c-44 -144 -64 -309 -72 -608 -9 -320 -26 -431 -90 -614
-55 -158 -87 -217 -239 -448 -85 -129 -156 -280 -156 -333 0 -24 7 -39 26 -54
36 -28 53 -27 26 2 -12 13 -22 31 -22 40 0 40 142 41 275 2 128 -37 171 -72
146 -118 -21 -39 -10 -52 21 -27 39 30 81 126 117 264 17 65 51 162 77 215 49
105 79 203 123 412 49 227 125 427 273 715 85 166 109 222 144 332 20 66 21
73 6 67 -83 -32 -138 -38 -257 -26 -154 16 -238 53 -304 133 -24 29 -48 63
-54 76 -15 33 -22 28 -40 -30z"/>
</g>
</svg>
