<?xml version="1.0" standalone="no"?>
<!DOCTYPE svg PUBLIC "-//W3C//DTD SVG 20010904//EN"
 "http://www.w3.org/TR/2001/REC-SVG-20010904/DTD/svg10.dtd">
<svg version="1.0" xmlns="http://www.w3.org/2000/svg"
 width="660.000000pt" height="1080.000000pt" viewBox="0 0 660.000000 1080.000000"
 preserveAspectRatio="xMidYMid meet">

<g transform="translate(0.000000,1080.000000) scale(0.100000,-0.100000)"
fill="#FFFFFF" stroke="none">
<path d="M1697 2728 c-44 -144 -64 -309 -72 -608 -9 -320 -26 -431 -90 -614
-55 -158 -87 -217 -239 -448 -85 -129 -156 -280 -156 -333 0 -24 7 -39 26 -54
36 -28 53 -27 26 2 -25 26 -28 52 -8 60 42 16 108 17 181 2 44 -9 83 -19 87
-21 3 -2 -13 -40 -38 -84 -58 -105 -61 -154 -7 -89 24 28 30 30 67 25 22 -4
48 -14 58 -23 20 -18 25 -73 6 -73 -6 0 -8 -3 -5 -7 4 -3 19 0 33 8 46 24 119
190 169 383 14 55 46 143 71 195 49 105 79 203 123 412 49 227 125 427 273
715 85 166 109 222 144 332 20 66 21 73 6 67 -83 -32 -138 -38 -262 -25 -162
16 -226 44 -295 127 -26 32 -52 68 -58 81 -15 33 -22 28 -40 -30z"/>
</g>
</svg>
