<?xml version="1.0" standalone="no"?>
<!DOCTYPE svg PUBLIC "-//W3C//DTD SVG 20010904//EN"
 "http://www.w3.org/TR/2001/REC-SVG-20010904/DTD/svg10.dtd">
<svg version="1.0" xmlns="http://www.w3.org/2000/svg"
 width="660.000000pt" height="1080.000000pt" viewBox="0 0 660.000000 1080.000000"
 preserveAspectRatio="xMidYMid meet">

<g transform="translate(0.000000,1080.000000) scale(0.100000,-0.100000)"
fill="#FFFFFF" stroke="none">
<path d="M2617 8534 c-21 -7 -87 -18 -145 -24 -138 -14 -207 -32 -302 -80
-142 -71 -230 -153 -467 -435 -131 -156 -213 -227 -483 -425 -216 -157 -409
-320 -447 -377 -77 -114 -82 -251 -18 -523 33 -142 46 -293 33 -378 -23 -151
8 -268 99 -371 36 -41 41 -44 76 -37 20 4 37 10 37 13 0 3 -18 21 -40 40 -32
28 -40 41 -40 68 0 93 49 216 113 283 44 46 71 42 139 -18 l56 -50 13 33 c7
17 34 55 59 83 57 61 82 106 78 141 l-3 26 -31 -26 c-90 -76 -207 24 -160 137
l15 36 83 0 83 0 -25 20 c-14 11 -38 23 -54 27 -27 6 -28 8 -22 47 4 23 9 67
13 99 l6 57 166 112 c310 210 474 341 683 544 70 68 131 124 137 124 13 0 16
-13 36 -170 14 -104 15 -144 6 -234 -22 -216 -8 -329 54 -451 34 -66 39 -88
76 -345 22 -151 42 -280 44 -287 5 -15 160 -65 285 -92 171 -36 322 -51 530
-51 281 0 536 37 738 108 l77 27 42 284 c39 265 44 288 77 355 63 124 77 237
55 452 -10 101 -5 196 16 300 4 17 -1 23 -23 29 -114 28 -565 231 -786 353
-299 166 -628 394 -806 558 -34 31 -36 31 -73 18z"/>
</g>
</svg>
