<?xml version="1.0" standalone="no"?>
<!DOCTYPE svg PUBLIC "-//W3C//DTD SVG 20010904//EN"
 "http://www.w3.org/TR/2001/REC-SVG-20010904/DTD/svg10.dtd">
<svg version="1.0" xmlns="http://www.w3.org/2000/svg"
 width="660.000000pt" height="1080.000000pt" viewBox="0 0 660.000000 1080.000000"
 preserveAspectRatio="xMidYMid meet">

<rect width="150.000000pt" height="400.000000pt" fill="#616e7c"/>
<g transform="translate(0.000000,1080.000000) scale(0.100000,-0.100000)"
fill="#FFFFFF" stroke="none">
<path d="M2617 8534 c-21 -7 -86 -18 -144 -24 -204 -21 -329 -62 -401 -133
-56 -55 -84 -119 -112 -253 -32 -152 -30 -309 5 -509 62 -347 66 -436 39 -796
-9 -120 -14 -288 -12 -388 3 -167 4 -179 30 -234 53 -113 150 -190 350 -278
38 -17 111 -54 162 -83 50 -29 111 -63 136 -76 65 -33 184 -114 265 -180 67
-56 166 -120 185 -120 4 0 39 -18 78 -40 38 -22 71 -40 74 -40 3 0 11 14 18
30 7 17 16 30 20 30 5 0 34 50 65 111 61 120 76 140 146 209 l47 46 -49 47
c-27 26 -53 47 -59 47 -33 0 -210 120 -210 143 0 4 56 7 124 7 206 0 486 46
664 108 l77 27 42 284 c39 265 44 288 77 355 63 124 77 237 55 452 -10 101 -5
196 16 300 4 17 -1 23 -23 29 -114 28 -565 231 -786 353 -299 166 -628 394
-806 558 -34 31 -36 31 -73 18z"/>
</g>
<g transform="translate(0.000000,1080.000000) scale(0.100000,-0.100000)"
fill="#000000" stroke="none">
<path d="M3250 6042 c0 -10 73 -73 101 -88 15 -7 62 -15 106 -16 94 -4 136 13
141 55 3 25 0 27 -30 27 -18 0 -49 4 -68 9 -41 11 -250 22 -250 13z"/>
<path d="M3479 5718 c-19 -24 -36 -45 -40 -48 -3 -3 -32 -56 -63 -117 -32 -62
-62 -113 -67 -113 -19 0 -8 -29 14 -35 12 -4 50 -20 83 -36 34 -16 79 -29 99
-29 35 0 37 2 32 26 -4 20 -1 24 12 18 65 -27 69 -28 86 -14 9 8 15 23 13 35
-4 18 0 20 23 17 31 -5 54 26 44 58 -4 14 -2 20 8 20 16 0 27 21 27 50 0 31
-74 113 -147 163 -38 26 -75 47 -81 47 -5 0 -25 -19 -43 -42z"/>
</g>
</svg>
