<?xml version="1.0" standalone="no"?>
<!DOCTYPE svg PUBLIC "-//W3C//DTD SVG 20010904//EN"
 "http://www.w3.org/TR/2001/REC-SVG-20010904/DTD/svg10.dtd">
<svg version="1.0" xmlns="http://www.w3.org/2000/svg"
 width="660.000000pt" height="1080.000000pt" viewBox="0 0 660.000000 1080.000000"
 preserveAspectRatio="xMidYMid meet">

<rect width="660.000000pt" height="1080.000000pt" fill="#616e7c"/>
<g transform="translate(0.000000,1080.000000) scale(0.100000,-0.100000)"
fill="#000000" stroke="none">
<path d="M3240 10340 c-183 -23 -356 -139 -423 -283 -41 -88 -52 -152 -52
-308 0 -133 -1 -145 -16 -136 -22 14 -47 3 -58 -26 -5 -13 -5 -60 0 -111 10
-100 66 -250 109 -295 16 -16 33 -53 45 -96 23 -89 48 -146 86 -203 36 -53 46
-118 29 -181 -16 -59 -82 -121 -183 -171 -105 -51 -181 -70 -282 -70 -267 -1
-430 -104 -715 -450 -174 -212 -244 -275 -525 -475 -122 -86 -290 -223 -402
-325 -57 -52 -83 -108 -90 -190 -7 -79 11 -231 37 -328 38 -141 51 -322 37
-510 -5 -63 -3 -91 8 -115 43 -93 90 -149 166 -198 54 -34 89 -38 96 -9 7 25
8 25 49 -1 46 -28 77 -22 88 18 9 28 12 31 43 26 64 -11 85 47 36 99 -25 26
-25 29 -10 46 30 33 21 65 -36 128 -29 32 -62 73 -74 89 l-21 30 104 108 103
107 55 0 c44 0 60 5 85 26 47 39 38 94 -15 94 -12 0 -37 6 -55 14 -44 17 -209
29 -241 17 l-25 -9 15 61 c8 34 17 96 21 137 l6 75 191 130 c326 222 485 348
684 545 72 71 143 133 157 136 46 12 60 -16 83 -176 20 -135 21 -156 9 -292
-19 -227 -1 -348 66 -450 14 -20 25 -47 25 -58 0 -12 20 -142 45 -290 56 -337
57 -357 3 -480 -113 -263 -132 -320 -198 -584 -49 -195 -83 -309 -123 -408
-101 -249 -154 -443 -178 -658 -5 -52 -12 -309 -15 -570 -6 -600 -10 -621
-121 -778 -93 -132 -157 -313 -182 -519 -6 -45 -13 -173 -16 -285 -10 -357
-32 -527 -84 -645 -16 -37 -32 -90 -36 -118 -4 -27 -18 -70 -30 -95 -25 -48
-149 -236 -223 -337 -55 -74 -122 -224 -122 -274 0 -20 7 -42 15 -49 8 -7 15
-19 15 -26 0 -8 9 -19 20 -26 11 -7 20 -20 20 -29 0 -18 30 -49 48 -49 7 0 12
-6 12 -14 0 -20 26 -38 58 -40 15 -1 40 -11 56 -24 66 -51 146 -8 170 91 4 15
21 47 40 71 34 45 39 59 81 241 16 70 44 149 76 216 27 59 52 124 55 145 4 22
16 66 29 99 13 33 28 100 34 148 21 158 128 439 280 732 99 189 125 256 167
422 30 121 39 142 92 222 64 95 67 103 208 526 91 270 106 307 226 543 161
317 203 416 238 558 16 62 31 118 35 123 9 16 26 14 73 -9 53 -26 111 -25 174
2 48 21 51 21 64 4 7 -10 16 -37 19 -59 23 -139 104 -335 247 -601 102 -188
134 -267 253 -621 114 -338 131 -379 201 -485 35 -52 50 -88 70 -171 41 -172
62 -224 180 -459 162 -324 255 -570 274 -727 6 -48 20 -108 31 -133 11 -25 25
-70 30 -100 5 -30 29 -95 53 -145 47 -95 75 -181 100 -308 16 -80 33 -121 72
-172 12 -16 28 -49 35 -73 16 -54 68 -102 110 -102 35 0 79 26 79 47 0 11 4
11 21 3 16 -9 26 -8 45 5 13 8 24 21 24 28 0 7 13 18 30 24 22 8 30 18 30 36
0 14 7 27 15 31 8 3 20 17 25 31 5 14 14 25 20 25 5 0 10 19 10 43 0 52 -74
221 -123 281 -49 60 -190 273 -219 331 -14 28 -29 70 -33 95 -4 25 -22 81 -40
125 -47 115 -64 240 -75 550 -11 307 -21 407 -56 553 -33 140 -73 233 -150
344 -109 157 -106 140 -115 718 -4 272 -12 545 -18 605 -23 228 -79 436 -186
700 -38 92 -71 202 -113 375 -65 264 -98 366 -163 506 -59 127 -79 190 -79
248 -1 59 88 624 101 646 60 103 88 194 89 290 0 30 -5 116 -11 190 -11 123
-10 148 9 279 36 246 46 247 261 39 215 -210 391 -349 717 -567 l141 -95 6
-80 c3 -45 12 -103 19 -131 l14 -50 -113 -2 c-74 -2 -125 -8 -149 -18 -20 -8
-47 -15 -59 -15 -55 0 -59 -62 -6 -97 25 -17 48 -23 90 -23 53 0 57 -2 80 -35
13 -19 57 -66 98 -105 l74 -71 -28 -37 c-15 -20 -49 -61 -75 -90 -54 -60 -63
-101 -27 -125 20 -15 20 -15 -10 -37 -37 -26 -42 -69 -11 -100 16 -16 24 -18
46 -10 15 6 27 9 28 8 1 -2 6 -16 12 -33 12 -38 40 -43 93 -16 40 21 40 21 46
1 21 -65 170 40 243 171 30 53 31 58 25 140 -15 192 -2 376 38 524 44 168 49
342 11 428 -27 61 -245 254 -457 405 -284 202 -377 284 -529 472 -185 229
-291 327 -426 395 -93 47 -128 55 -285 65 -150 9 -210 25 -314 80 -123 66
-170 129 -171 226 0 39 7 61 32 100 43 68 75 142 95 222 10 40 24 73 35 81 24
16 84 145 104 221 8 30 14 89 14 131 0 84 -12 105 -53 97 l-23 -4 0 140 c0
216 -35 317 -149 431 -116 116 -286 175 -445 155z"/>
</g>
</svg>
